<svg width="32" height="42" viewBox="0 0 32 42" fill="none" xmlns="http://www.w3.org/2000/svg">
<path d="M14.3812 41.441C14.8105 41.7989 15.3928 42 16 42C16.6072 42 17.1895 41.7989 17.6188 41.441L31.3572 29.9864C31.7743 29.6263 32.0051 29.1441 31.9999 28.6435C31.9947 28.143 31.7539 27.6641 31.3293 27.3102C30.9048 26.9562 30.3305 26.7554 29.7302 26.7511C29.1298 26.7467 28.5514 26.9391 28.1196 27.2869L18.2897 35.4827V1.90911C18.2897 1.40278 18.0485 0.917193 17.6191 0.559165C17.1897 0.201138 16.6073 0 16 0C15.3927 0 14.8103 0.201138 14.3809 0.559165C13.9515 0.917193 13.7103 1.40278 13.7103 1.90911V35.4827L3.88044 27.2869C3.44859 26.9391 2.8702 26.7467 2.26984 26.7511C1.66948 26.7554 1.09518 26.9562 0.670648 27.3102C0.246113 27.6641 0.00530353 28.143 8.65576e-05 28.6435C-0.00513042 29.1441 0.225663 29.6263 0.642756 29.9864L14.3812 41.441Z" fill="white"/>
</svg>
