<svg width="13" height="14" viewBox="0 0 13 14" fill="none" xmlns="http://www.w3.org/2000/svg">
<path d="M12.25 2V3.25C12.25 4.35157 9.50652 5.25 6.125 5.25C2.74348 5.25 0 4.35157 0 3.25V2C0 0.898434 2.74348 0 6.125 0C9.50652 0 12.25 0.898434 12.25 2ZM12.25 4.8125V7.625C12.25 8.72657 9.50652 9.625 6.125 9.625C2.74348 9.625 0 8.72657 0 7.625V4.8125C1.31592 5.71875 3.72444 6.14064 6.125 6.14064C8.52556 6.14064 10.9341 5.71875 12.25 4.8125ZM12.25 9.1875V12C12.25 13.1016 9.50652 14 6.125 14C2.74348 14 0 13.1016 0 12V9.1875C1.31592 10.0938 3.72444 10.5156 6.125 10.5156C8.52556 10.5156 10.9341 10.0938 12.25 9.1875Z" fill="black"/>
</svg>
