<svg width="85" height="149" viewBox="0 0 85 149" fill="none" xmlns="http://www.w3.org/2000/svg">
<path fill-rule="evenodd" clip-rule="evenodd" d="M5.5919 83.7481C5.63373 83.8668 5.66203 83.9334 5.66203 83.9334L5.5919 83.7481C5.03587 82.1838 1.78316 70.8507 16.3851 53.1558C16.3851 53.1558 -1.03772 74.6393 15.9267 119.004C15.9267 119.004 14.1964 111.801 17.9084 105.113C17.9084 105.113 15.374 132.066 37.0942 148.792C37.0942 148.792 27.2208 132.989 36.3397 114.949C36.3397 114.949 41.1936 104.417 45.1948 98.8067C45.1948 98.8067 47.7803 89.7084 48.1023 85.6007C48.1346 84.7696 48.1632 84.5795 48.1205 85.2997C48.1161 85.3958 48.1092 85.4983 48.1023 85.6007C47.9594 89.3345 47.6951 105.901 52.4736 111.128C52.4736 111.128 49.6241 104.264 55.1744 96.2637C55.1744 96.2637 72.8783 77.0572 73.82 70.9758C73.82 70.9758 75.5689 61.2275 72.7338 57.1453C72.7338 57.1453 79.2808 60.157 75.2581 73.8624C75.2581 73.8624 87.9804 62.3963 76.2422 39.9452C76.2422 39.9452 83.4552 41.1419 84.9189 55.7992C84.9189 55.7992 87.5037 7.87247 46.9192 0.804044C35.257 -1.22423 6.61723 8.54258 3.10128 33.1719C3.10128 33.1719 7.72539 24.6068 14.4138 22.6591C14.4138 22.6591 -10.1718 42.0707 5.5919 83.7481ZM38.4133 73.1852C26.449 71.1003 18.6257 56.1616 20.9591 39.8478C23.2868 23.5312 34.8969 11.9763 46.8612 14.0612C58.8281 16.1397 66.6513 31.0784 64.3179 47.3922C61.9877 63.7151 50.3802 75.2637 38.4133 73.1852Z" fill="black"/>
</svg>
