<svg width="92" height="157" viewBox="0 0 92 157" fill="none" xmlns="http://www.w3.org/2000/svg">
<path fill-rule="evenodd" clip-rule="evenodd" d="M88.1393 83.5521C88.1088 83.6837 88.0865 83.7582 88.0865 83.7582L88.1393 83.5521C88.5462 81.8174 90.6711 69.3538 73.1039 52.5409C73.1039 52.5409 94.1082 72.9946 81.2997 122.354C81.2997 122.354 82.2926 114.478 77.5703 107.88C77.5703 107.88 83.4154 136.14 62.3243 156.81C62.3243 156.81 70.9518 138.714 59.1627 120.797C59.1627 120.797 52.7787 110.273 47.8758 104.858C47.8758 104.858 44.0669 95.5516 43.2443 91.2361C43.1127 90.3585 43.0601 90.1606 43.1897 90.9191C43.2056 91.0205 43.2249 91.1283 43.2443 91.2361C43.833 95.179 46.0531 112.723 41.5941 118.912C41.5941 118.912 43.8143 111.245 36.9878 103.502C36.9878 103.502 15.9517 85.5027 14.2405 79.1761C14.2405 79.1761 11.2432 69.067 13.7739 64.3538C13.7739 64.3538 7.17881 68.4303 13.0522 82.4327C13.0522 82.4327 -1.79103 71.9767 8.03694 46.5738C8.03694 46.5738 0.522653 48.8139 0.685453 64.5644C0.685453 64.5644 -7.66871 14.0546 34.5719 1.09496C46.7104 -2.62602 78.2463 3.88572 84.8609 29.5482C84.8609 29.5482 78.9511 21.0813 71.6253 19.9142C71.6253 19.9142 99.9882 37.2058 88.1393 83.5521ZM52.0726 76.7581C64.525 72.9364 71.078 56.0319 66.6918 39.0344C62.3114 22.0331 48.638 11.3332 36.1856 15.1549C23.7297 18.9703 17.1767 35.8747 21.5629 52.8723C25.9467 69.8799 39.6167 80.5734 52.0726 76.7581Z" fill="black"/>
</svg>
