<svg width="43" height="74" viewBox="0 0 43 74" fill="none" xmlns="http://www.w3.org/2000/svg">
<path fill-rule="evenodd" clip-rule="evenodd" d="M41.2088 39.1372C41.1946 39.1981 41.1844 39.2326 41.1844 39.2326L41.2088 39.1372C41.397 38.3347 42.38 32.5689 34.2533 24.7912C34.2533 24.7912 43.97 34.2532 38.0448 57.0874C38.0448 57.0874 38.504 53.4438 36.3195 50.3913C36.3195 50.3913 39.0235 63.4647 29.2666 73.0269C29.2666 73.0269 33.2577 64.6553 27.804 56.3669C27.804 56.3669 24.8508 51.4986 22.5826 48.9936C22.5826 48.9936 20.8206 44.6882 20.4401 42.6919C20.3792 42.2859 20.3549 42.1943 20.4148 42.5452C20.4222 42.5921 20.4311 42.642 20.4401 42.6919C20.7124 44.5158 21.7394 52.6319 19.6767 55.495C19.6767 55.495 20.7038 51.9481 17.5458 48.3663C17.5458 48.3663 7.81436 40.0396 7.02273 37.1128C7.02273 37.1128 5.63616 32.4363 6.80689 30.2559C6.80689 30.2559 3.75598 32.1417 6.47306 38.6193C6.47306 38.6193 -0.393528 33.7823 4.15295 22.0308C4.15295 22.0308 0.676796 23.0671 0.752109 30.3533C0.752109 30.3533 -3.11258 6.98724 16.4282 0.992026C22.0435 -0.729321 36.6322 2.28305 39.6922 14.1547C39.6922 14.1547 36.9582 10.2378 33.5693 9.69791C33.5693 9.69791 46.6901 17.6971 41.2088 39.1372ZM24.5241 35.9942C30.2847 34.2263 33.3161 26.4062 31.287 18.543C29.2606 10.6781 22.9352 5.72832 17.1747 7.49626C11.4125 9.26126 8.38104 17.0814 10.4101 24.9445C12.4381 32.8124 18.7619 37.7592 24.5241 35.9942Z" fill="black"/>
</svg>
