<svg width="75" height="93" viewBox="0 0 75 93" fill="none" xmlns="http://www.w3.org/2000/svg">
<path fill-rule="evenodd" clip-rule="evenodd" d="M35.6966 91.9821L36.0634 89.7173L36.7436 92.0116C37.0952 92.02 37.4544 92.0242 37.8136 92.0242C54.3069 92.0242 62.114 84.7751 62.114 84.7751C62.114 84.7751 67.2004 78.8647 68.5035 71.304C68.5035 71.304 67.2615 58.9401 64.0057 54.882L52.8853 62.5521C52.8853 62.5521 62.1752 50.908 51.8229 46.2605C41.4669 41.6172 38.1194 57.9761 38.1194 57.9761C38.1194 57.9761 35.1998 43.4105 23.6629 46.2605C12.126 49.1105 22.891 62.5521 22.891 62.5521L11.8318 54.882C11.8318 54.882 7.6894 62.4089 6.97861 71.304C6.97861 71.304 8.70586 78.671 14.9692 84.7751C14.9692 84.7751 18.8823 89.2374 28.5352 91.1612L29.4027 80.7085L33.0254 91.8095C33.8814 91.8895 34.7718 91.9484 35.6966 91.9821ZM45.4833 51.6826C46.9392 50.0787 49.8932 50.1334 52.1707 52.3224C52.1707 52.3224 46.4309 57.6603 44.6845 58.7296L41.8987 57.3657C41.8987 57.3657 44.0311 53.2823 45.4833 51.6826ZM29.4791 51.6826C28.0231 50.0787 25.0692 50.1334 22.7916 52.3224C22.7916 52.3224 28.5314 57.6603 30.2778 58.7296L33.0636 57.3657C33.0636 57.3657 30.9312 53.2823 29.4791 51.6826ZM71.3122 42.7959C69.99 45.8732 68.8168 47.9318 68.8168 47.9318C66.1112 48.2896 60.895 47.0309 56.1908 45.6248C59.9396 45.5996 62.8707 45.5827 64.1853 45.5827C65.8476 45.5827 69.6422 45.5828 71.3122 42.7959ZM4.95324 44.1219C6.83338 45.5827 9.55808 45.5827 10.8994 45.5827C12.3592 45.5827 15.8099 45.6038 20.1625 45.6333C13.3184 47.3677 6.97861 47.9318 6.97861 47.9318C6.21815 46.833 5.54556 45.5322 4.95324 44.1219ZM9.50834 27.1568L12.3133 39.3902L6.97861 31.9012L11.0446 42.3707C15.9551 43.7179 29.4982 42.3707 29.4982 42.3707C28.7034 42.7622 27.8703 43.1284 27.0105 43.4652C26.4334 43.5789 25.78 43.6421 25.0387 43.6379C19.2186 43.6084 14.1323 43.5705 12.4127 43.5705C10.693 43.5705 6.20283 43.5704 5.89712 39.2429V30.7898C5.89712 30.7898 5.38503 27.8809 9.50834 27.1568ZM66.4322 27.3589L63.8108 39.3902L68.8168 31.9012C68.8168 31.9012 66.9481 39.205 65.4081 42.3707H46.5265C46.5265 42.3707 47.9251 42.9012 50.0498 43.6379C55.866 43.6084 60.9524 43.5705 62.672 43.5705C64.3916 43.5705 68.8817 43.5704 69.1836 39.2429V30.7898C69.1836 30.7898 69.6231 28.3018 66.4322 27.3589ZM0.982732 26.7064C0.902482 25.9487 0.868164 25.5151 0.868164 25.5151C4.06287 20.7581 16.4863 17.1083 21.7522 18.3501C27.0143 19.5878 37.8136 29.3627 37.8136 29.3627C40.9816 24.9299 53.6381 18.3501 53.6381 18.3501C68.427 17.4366 74.7553 25.5151 74.7553 25.5151C75.5234 30.6762 73.712 36.835 71.893 41.3899C72 40.9773 72.0727 40.5311 72.1071 40.0386V32.5284C73.2726 31.0382 74.2165 28.3692 74.2165 27.3715C74.2165 25.9613 72.7834 25.0057 71.0485 24.8121C70.3645 24.7363 68.8245 24.5721 67.1316 24.4626C66.6195 24.3953 66.0539 24.3574 65.4311 24.349C65.4311 24.349 62.7636 24.248 59.4505 24.168C56.4316 23.5955 53.6381 23.3681 53.6381 23.3681C53.3553 23.5912 53.0802 23.8228 52.8089 24.067C50.1683 24.0627 47.9365 24.1216 47.134 24.3068C45.7583 24.6184 44.1457 24.9593 42.9381 25.877C42.9381 25.877 42.9381 25.8728 42.9343 25.8728C40.2478 27.6662 41.0809 30.4993 37.5079 30.5162C33.9807 30.4993 34.8023 27.6662 32.1464 25.8728V25.877C30.9389 24.9593 29.3262 24.6184 27.9467 24.3068C27.0716 24.1048 24.4692 24.0543 21.4924 24.0712C20.9497 23.6165 20.6249 23.3681 20.6249 23.3681C18.8135 23.0944 16.769 23.5323 14.9309 24.1848C11.9502 24.2606 9.65361 24.349 9.65361 24.349C9.03072 24.3574 8.46507 24.3953 7.953 24.4626C6.25629 24.5721 4.71626 24.7363 4.03604 24.8121C2.59155 24.9721 1.35723 25.6624 0.982732 26.7064ZM1.29229 29.2448C1.67825 30.3562 2.28583 31.6486 2.9775 32.5284V38.06C2.14825 34.8143 1.61711 31.6065 1.29229 29.2448ZM50.1607 26.8284C49.4728 26.8579 48.9454 26.9 48.6511 26.9632C46.6411 27.401 44.0043 27.902 43.7483 30.8909C43.5763 32.8863 43.6184 35.572 43.6643 37.1338C44.2642 35.8667 46.6946 30.9582 50.1607 26.8284ZM24.4959 26.8117C25.3902 26.8412 26.078 26.8874 26.4296 26.9632C28.4435 27.401 31.0803 27.902 31.3363 30.8909C31.4777 32.5621 31.4739 34.7133 31.4395 36.2877C29.9339 32.6758 26.9493 29.2365 24.4959 26.8117ZM37.8366 25.1698C37.8366 25.1698 40.0338 20.9897 41.1115 15.7528C42.1891 10.5159 42.1509 4.22233 37.6875 0C37.6875 0 28.8142 8.74779 37.8366 25.1698Z" fill="black"/>
</svg>
