<svg width="161" height="200" viewBox="0 0 161 200" fill="none" xmlns="http://www.w3.org/2000/svg">
<path fill-rule="evenodd" clip-rule="evenodd" d="M75.5265 199.349L76.322 194.44L77.7971 199.413C78.5594 199.431 79.3384 199.44 80.1174 199.44C115.884 199.44 132.814 183.729 132.814 183.729C132.814 183.729 143.844 170.92 146.669 154.534C146.669 154.534 143.976 127.738 136.916 118.943L112.801 135.566C112.801 135.566 132.946 110.331 110.497 100.258C88.0396 90.1951 80.7804 125.649 80.7804 125.649C80.7804 125.649 74.4492 94.0817 49.4311 100.258C24.413 106.435 47.7571 135.566 47.7571 135.566L23.775 118.943C23.775 118.943 14.7921 135.256 13.2507 154.534C13.2507 154.534 16.9963 170.5 30.5785 183.729C30.5785 183.729 39.0642 193.4 59.9969 197.57L61.878 174.916L69.7339 198.975C71.5902 199.148 73.521 199.276 75.5265 199.349ZM96.7492 112.009C99.9065 108.533 106.312 108.652 111.251 113.396C111.251 113.396 98.8043 124.965 95.0172 127.282L88.976 124.326C88.976 124.326 93.6002 115.476 96.7492 112.009ZM62.0437 112.009C58.8864 108.533 52.4807 108.652 47.5417 113.396C47.5417 113.396 59.9886 124.965 63.7757 127.282L69.8169 124.326C69.8169 124.326 65.1927 115.476 62.0437 112.009ZM152.76 92.7497C149.893 99.419 147.349 103.88 147.349 103.88C141.482 104.656 130.17 101.928 119.969 98.8807C128.098 98.8259 134.454 98.7893 137.305 98.7893C140.91 98.7893 149.139 98.7895 152.76 92.7497ZM8.85862 95.6235C12.9358 98.7894 18.8443 98.7893 21.753 98.7893C24.9186 98.7893 32.4017 98.8351 41.8404 98.8989C26.9986 102.658 13.2507 103.88 13.2507 103.88C11.6016 101.499 10.1431 98.6799 8.85862 95.6235ZM18.7365 58.8557L24.8191 85.3687L13.2507 69.138L22.0678 91.8282C32.7165 94.7477 62.0852 91.8282 62.0852 91.8282C60.3615 92.6767 58.555 93.4703 56.6904 94.2002C55.4391 94.4465 54.0221 94.5835 52.4145 94.5744C39.7936 94.5105 28.7637 94.4283 25.0346 94.4283C21.3055 94.4283 11.5684 94.4283 10.9054 85.0493V66.7294C10.9054 66.7294 9.79497 60.425 18.7365 58.8557ZM142.178 59.2937L136.493 85.3687L147.349 69.138C147.349 69.138 143.296 84.9673 139.957 91.8282H99.0115C99.0115 91.8282 102.044 92.9778 106.652 94.5744C119.265 94.5105 130.294 94.4283 134.024 94.4283C137.753 94.4283 147.49 94.4283 148.144 85.0493V66.7294C148.144 66.7294 149.097 61.3373 142.178 59.2937ZM0.248444 57.8797C0.07442 56.2375 0 55.2977 0 55.2977C6.92782 44.9881 33.8684 37.078 45.2877 39.7694C56.6987 42.4518 80.1174 63.6364 80.1174 63.6364C86.9872 54.0294 114.433 39.7694 114.433 39.7694C146.503 37.7896 160.227 55.2977 160.227 55.2977C161.892 66.4831 157.964 79.8307 154.02 89.7024C154.252 88.8083 154.409 87.8412 154.484 86.7738V70.4973C157.011 67.2676 159.058 61.4833 159.058 59.321C159.058 56.2647 155.951 54.1938 152.188 53.7741C150.705 53.6099 147.365 53.254 143.694 53.0168C142.584 52.8708 141.357 52.7887 140.007 52.7704C140.007 52.7704 134.222 52.5515 127.038 52.3782C120.491 51.1374 114.433 50.6446 114.433 50.6446C113.82 51.1281 113.223 51.6301 112.635 52.1592C106.909 52.1501 102.069 52.2777 100.329 52.6791C97.3457 53.3543 93.8487 54.0932 91.23 56.0822C91.23 56.0822 91.23 56.073 91.2217 56.073C85.3961 59.9596 87.2027 66.0998 79.4544 66.1363C71.8056 66.0998 73.5873 59.9596 67.8279 56.073V56.0822C65.2093 54.0932 61.7122 53.3543 58.7207 52.6791C56.823 52.2412 51.1797 52.1319 44.7242 52.1684C43.5475 51.183 42.8431 50.6446 42.8431 50.6446C38.9151 50.0516 34.4815 51.0006 30.4955 52.4147C24.0318 52.5789 19.0515 52.7704 19.0515 52.7704C17.7007 52.7887 16.4741 52.8708 15.3637 53.0168C11.6843 53.254 8.34471 53.6099 6.86965 53.7741C3.73721 54.1208 1.06056 55.6171 0.248444 57.8797ZM0.919729 63.381C1.7567 65.7896 3.07424 68.5905 4.57417 70.4973V82.4858C2.77592 75.4515 1.62411 68.4993 0.919729 63.381ZM106.892 58.1441C105.401 58.2079 104.257 58.2992 103.619 58.4361C99.26 59.3849 93.5422 60.4707 92.987 66.9484C92.614 71.2729 92.7052 77.0936 92.8047 80.4784C94.1057 77.7322 99.3762 67.0942 106.892 58.1441ZM51.2376 58.1078C53.1767 58.1716 54.6684 58.2719 55.4308 58.4361C59.798 59.3849 65.516 60.4707 66.0712 66.9484C66.3778 70.5704 66.3696 75.2326 66.295 78.6448C63.0299 70.8168 56.5578 63.3629 51.2376 58.1078ZM80.1672 54.5495C80.1672 54.5495 84.932 45.4899 87.2689 34.1403C89.6058 22.7907 89.5229 9.15088 79.8439 0C79.8439 0 60.6019 18.9587 80.1672 54.5495Z" fill="black"/>
</svg>
