<svg width="60" height="60" viewBox="0 0 60 60" fill="none" xmlns="http://www.w3.org/2000/svg">
<circle cx="30" cy="30" r="28.5" stroke="white" stroke-width="3"/>
<path fill-rule="evenodd" clip-rule="evenodd" d="M22.9311 37.7301C22.9311 37.7301 24.9266 39.6985 29.8519 39.6985C34.7773 39.6985 37.1045 37.7301 37.1045 37.7301C37.1045 37.7301 39.3737 39.8094 38.5307 41.3537C38.5307 41.3537 32.6795 42.1826 30.858 46.4384C30.858 46.4384 28.4368 42.2409 21.1953 41.3537C21.1953 41.3537 20.847 39.1496 22.9311 37.7301ZM9.84931 36.8429C9.86037 36.8539 9.86591 36.8595 9.86591 36.8595L9.84931 36.8429C9.70559 36.7015 8.77139 35.6368 9.65861 32.9253C9.65861 32.9253 8.61935 36.2024 12.7791 40.1449C12.7791 40.1449 12.2263 39.449 12.3452 38.5202C12.3452 38.5202 13.3457 41.6032 16.7398 42.2714C16.7398 42.2714 14.7995 41.0709 15.0151 38.6145C15.0151 38.6145 15.087 37.2033 15.2915 36.3771C15.2915 36.3771 15.1616 35.2459 15.0013 34.7801C14.9654 34.6887 14.9598 34.6637 14.9902 34.7469C14.993 34.758 14.9985 34.7691 15.0013 34.7801C15.1644 35.196 15.9327 37.0203 16.7536 37.3364C16.7536 37.3364 16.082 36.7375 16.3584 35.5675C16.3584 35.5675 17.5414 32.5261 17.3589 31.8108C17.3589 31.8108 17.0964 30.6519 16.5629 30.358C16.5629 30.358 17.4861 30.3358 17.6685 32.0492C17.6685 32.0492 18.6304 30.1168 16.1511 28.2898C16.1511 28.2898 17.0687 28.0374 17.9477 29.5595C17.9477 29.5595 15.9438 24.1837 10.7697 25.5755C9.28272 25.9747 6.34186 28.5698 7.113 31.4476C7.113 31.4476 7.24845 30.2665 7.95325 29.6982C7.95325 29.6982 5.96045 33.1277 9.84931 36.8429ZM44.4428 33.8486C44.1802 34.209 42.9668 35.7727 42.0934 35.8642C42.0934 35.8642 42.895 35.4594 42.9309 34.2589C42.9309 34.2589 42.5744 31.0123 42.9337 30.3691C42.9337 30.3691 43.4864 29.3183 44.0779 29.1714C44.0779 29.1714 43.1907 28.9136 42.5716 30.5188C42.5716 30.5188 42.1404 28.4034 45.0094 27.2833C45.0094 27.2833 44.1885 26.7982 42.9447 28.043C42.9447 28.043 46.267 23.3714 50.9076 26.0579C52.2399 26.8286 54.4095 30.0974 52.9253 32.6814C52.9253 32.6814 53.0967 31.503 52.566 30.7683C52.566 30.7683 53.6052 34.5999 48.8927 37.1783C48.8761 37.1866 48.8679 37.1922 48.8679 37.1922L48.8927 37.1783C49.0696 37.0757 50.2388 36.2856 50.084 33.4438C50.084 33.4438 50.2415 36.8789 45.2056 39.6098C45.2056 39.6098 45.9187 39.0802 46.0431 38.1515C46.0431 38.1515 44.2852 40.8685 40.8331 40.6356C40.8331 40.6356 43.0166 39.9785 43.4395 37.5498C43.4395 37.5498 43.738 36.1691 43.7518 35.318C43.7518 35.318 44.1692 34.2589 44.4428 33.8486C44.5036 33.771 44.5146 33.7488 44.4649 33.8181C44.4594 33.8292 44.4511 33.8403 44.4428 33.8486ZM29.2107 39.3547L29.3213 38.7282L29.5286 39.363C29.6364 39.363 29.7441 39.3658 29.8519 39.3658C34.8491 39.3658 37.2151 37.3669 37.2151 37.3669C37.2151 37.3669 38.7574 35.7339 39.1526 33.6489C39.1526 33.6489 38.7767 30.236 37.79 29.1159L34.4207 31.2341C34.4207 31.2341 37.2344 28.0208 34.0973 26.7372C30.9603 25.4563 29.9459 29.9699 29.9459 29.9699C29.9459 29.9699 29.0615 25.9526 25.5651 26.7372C22.0687 27.5246 25.3329 31.2341 25.3329 31.2341L21.9802 29.1159C21.9802 29.1159 20.7254 31.1953 20.5098 33.6489C20.5098 33.6489 21.0322 35.6812 22.9311 37.3669C22.9311 37.3669 24.1168 38.5978 27.041 39.1274L27.3036 36.244L28.4009 39.3048C28.6607 39.327 28.9316 39.3436 29.2107 39.3547ZM13.249 33.9401C11.7233 34.3504 10.0704 33.1333 9.55912 31.2258C9.05055 29.3183 9.87695 27.4358 11.4026 27.0283C12.9283 26.6179 14.5812 27.8323 15.0897 29.7398C15.5983 31.6472 14.7747 33.5297 13.249 33.9401ZM46.3554 33.4937C47.7236 34.2839 49.6335 33.5381 50.6174 31.8302C51.6014 30.1196 51.2891 28.0874 49.9209 27.2944C48.5528 26.5043 46.6429 27.2473 45.6589 28.9579C44.675 30.6686 44.9873 32.7008 46.3554 33.4937ZM32.1764 28.2343C32.6187 27.7907 33.5142 27.8073 34.2051 28.4117C34.2051 28.4117 32.4639 29.8839 31.936 30.1778L31.0902 29.8035C31.0902 29.8035 31.737 28.6751 32.1764 28.2343ZM27.3257 28.2343C26.8862 27.7907 25.9907 27.8073 25.2997 28.4117C25.2997 28.4117 27.041 29.8839 27.5689 30.1778L28.4147 29.8035C28.4147 29.8035 27.7679 28.6751 27.3257 28.2343ZM40.0039 25.7806C39.6031 26.6318 39.2493 27.2002 39.2493 27.2002C38.4284 27.2972 36.8475 26.9507 35.4213 26.5625C36.5573 26.557 37.4445 26.5514 37.8425 26.5514C38.3483 26.5514 39.4981 26.5514 40.0039 25.7806ZM19.8962 26.1494C20.4656 26.5514 21.292 26.5514 21.6983 26.5514C22.1405 26.5514 23.1853 26.557 24.5037 26.5653C22.4308 27.0421 20.5098 27.2002 20.5098 27.2002C20.2777 26.8952 20.0759 26.5376 19.8962 26.1494ZM21.2754 21.4667L22.1267 24.8435L20.5098 22.7781L21.7398 25.6642C23.2295 26.0357 27.334 25.6642 27.334 25.6642C27.0935 25.7723 26.8393 25.8749 26.5794 25.9664C26.4053 25.9997 26.2063 26.0163 25.9824 26.0136C24.219 26.0052 22.6768 25.9969 22.1571 25.9969C21.6348 25.9969 20.2749 25.9969 20.1809 24.802V22.4703C20.1809 22.4703 20.0261 21.6663 21.2754 21.4667ZM38.5252 21.5221L37.7319 24.8435L39.2493 22.7781C39.2493 22.7781 38.68 24.7909 38.2156 25.6642H32.4915C32.4915 25.6642 32.9172 25.8112 33.5612 26.0136C35.3218 26.0052 36.8641 25.9969 37.3837 25.9969C37.9061 25.9969 39.2659 25.9969 39.3599 24.802V22.4703C39.3599 22.4703 39.4926 21.7827 38.5252 21.5221ZM18.6939 21.3419C18.669 21.134 18.658 21.0148 18.658 21.0148C19.6254 19.7034 23.3899 18.6942 24.9846 19.0352C26.5822 19.379 29.8519 22.0766 29.8519 22.0766C30.8138 20.854 34.6474 19.0352 34.6474 19.0352C39.1277 18.7857 41.0459 21.0148 41.0459 21.0148C41.2808 22.437 40.7308 24.1366 40.1808 25.3953C40.2112 25.2816 40.2333 25.1568 40.2443 25.021V22.95C40.5981 22.5369 40.8828 21.8021 40.8828 21.5277C40.8828 21.1367 40.4489 20.8733 39.9238 20.8207C39.7165 20.7985 39.2493 20.7541 38.738 20.7236C38.5805 20.7042 38.4091 20.6931 38.2212 20.6931C38.2212 20.6931 37.4141 20.6654 36.4108 20.6405C35.4959 20.4852 34.6474 20.4215 34.6474 20.4215C34.5617 20.4824 34.4788 20.549 34.3959 20.6155C33.5971 20.6127 32.9199 20.6294 32.6767 20.6793C32.2593 20.768 31.7701 20.8623 31.4053 21.1146C31.4053 21.1146 31.4053 21.1146 31.4053 21.1118C30.5899 21.6081 30.8442 22.3899 29.7607 22.3955C28.6911 22.3899 28.9399 21.6081 28.1355 21.1118C28.1355 21.1146 28.1355 21.1146 28.1355 21.1146C27.7707 20.8623 27.2815 20.768 26.8641 20.6793C26.5988 20.6239 25.8083 20.61 24.9072 20.6155C24.7442 20.4907 24.6447 20.4215 24.6447 20.4215C24.0947 20.3466 23.4755 20.4686 22.92 20.646C22.0162 20.6682 21.3197 20.6931 21.3197 20.6931C21.1317 20.6931 20.9604 20.7042 20.8056 20.7236C20.2915 20.7541 19.8244 20.7985 19.6171 20.8207C19.1804 20.865 18.8045 21.0536 18.6939 21.3419ZM33.4451 24.1089L36.7148 24.7493L37.7458 21.78C37.7458 21.78 35.8552 21.1423 34.5119 21.6081C33.1687 22.0739 33.4451 24.1089 33.4451 24.1089ZM26.3445 24.1089L23.0748 24.7493L22.0438 21.78C22.0438 21.78 23.9344 21.1423 25.2776 21.6081C26.6209 22.0739 26.3445 24.1089 26.3445 24.1089ZM18.7879 22.0433C18.904 22.3511 19.0864 22.706 19.2965 22.95V24.4748C19.045 23.5793 18.8846 22.6949 18.7879 22.0433ZM33.5943 21.3752C33.387 21.3835 33.2267 21.3974 33.1383 21.414C32.5274 21.5332 31.7287 21.6746 31.6513 22.498C31.5988 23.047 31.6126 23.79 31.6264 24.2197C31.8088 23.8704 32.544 22.5147 33.5943 21.3752ZM25.8166 21.3724C26.0902 21.3807 26.2975 21.3918 26.4025 21.414C27.0134 21.5332 27.8122 21.6746 27.8896 22.498C27.9338 22.9583 27.931 23.5516 27.9227 23.9869C27.4667 22.9915 26.5601 22.0406 25.8166 21.3724ZM29.8602 20.9177C29.8602 20.9177 30.5263 19.7644 30.8525 18.3199C31.1786 16.8755 31.1676 15.1399 29.8132 13.9727C29.8132 13.9727 27.1267 16.3875 29.8602 20.9177ZM41.1012 18.7552C41.1012 18.7552 37.2925 16.0686 34.8243 17.4577C34.8243 17.4577 34.0338 17.8708 33.5363 17.5852C33.5363 17.5852 33.9481 17.6268 34.5479 17.0584C34.5479 17.0584 38.6966 12.5975 41.1012 18.7552ZM19.1914 18.7552C19.1914 18.7552 23.0029 16.0686 25.4711 17.4577C25.4711 17.4577 26.2588 17.8708 26.7591 17.5852C26.7591 17.5852 26.3445 17.6268 25.7475 17.0584C25.7475 17.0584 21.5988 12.5975 19.1914 18.7552Z" fill="white"/>
</svg>
