<svg width="23" height="16" viewBox="0 0 23 16" fill="none" xmlns="http://www.w3.org/2000/svg">
<path d="M1.6 3.2H20.8C21.6832 3.2 22.4 2.4832 22.4 1.6C22.4 0.7168 21.6832 0 20.8 0H1.6C0.7168 0 0 0.7168 0 1.6C0 2.4832 0.7168 3.2 1.6 3.2ZM20.8 6.4H1.6C0.7168 6.4 0 7.1168 0 8C0 8.8832 0.7168 9.6 1.6 9.6H20.8C21.6832 9.6 22.4 8.8832 22.4 8C22.4 7.1168 21.6832 6.4 20.8 6.4ZM20.8 12.8H1.6C0.7168 12.8 0 13.5168 0 14.4C0 15.2832 0.7168 16 1.6 16H20.8C21.6832 16 22.4 15.2832 22.4 14.4C22.4 13.5168 21.6832 12.8 20.8 12.8Z" fill="black"/>
</svg>
