<svg width="48" height="72" viewBox="0 0 48 72" fill="none" xmlns="http://www.w3.org/2000/svg">
<path d="M32.6243 36.0002L2.15431 61.3902C0.938109 62.4118 0.176284 63.8736 0.035668 65.4557C-0.104948 67.0378 0.3871 68.6111 1.40406 69.8311C2.42102 71.0512 3.88001 71.8185 5.46154 71.9651C7.04307 72.1117 8.61823 71.6256 9.8421 70.6132L45.8436 40.6118C46.5187 40.0478 47.0617 39.3425 47.4343 38.5457C47.8069 37.7488 48 36.8799 48 36.0003C48 35.1206 47.8069 34.2517 47.4343 33.4548C47.0617 32.658 46.5187 31.9527 45.8436 31.3887L9.84211 1.3874C8.61879 0.370196 7.04171 -0.119831 5.45734 0.0249673C3.87296 0.169765 2.41084 0.937545 1.39217 2.15965C0.373503 3.38175 -0.118413 4.95823 0.0244884 6.54278C0.16739 8.12733 0.933426 9.59037 2.15431 10.6105L32.6243 36.0002Z" fill="black"/>
</svg>
