<svg width="48" height="72" viewBox="0 0 48 72" fill="none" xmlns="http://www.w3.org/2000/svg">
<path d="M15.3757 35.9905L45.8457 10.6005C47.0619 9.57896 47.8237 8.11709 47.9643 6.53502C48.1049 4.95295 47.6129 3.37963 46.5959 2.15959C45.579 0.939548 44.12 0.17222 42.5385 0.0256381C40.9569 -0.120944 39.3818 0.365166 38.1579 1.37752L2.1564 31.3789C1.48134 31.9429 0.938336 32.6482 0.565729 33.4451C0.193122 34.2419 0 35.1108 0 35.9905C0 36.8701 0.193122 37.739 0.565729 38.5359C0.938336 39.3327 1.48134 40.038 2.1564 40.602L38.1579 70.6033C39.3812 71.6205 40.9583 72.1105 42.5427 71.9658C44.1271 71.821 45.5892 71.0532 46.6078 69.8311C47.6265 68.609 48.1184 67.0325 47.9755 65.4479C47.8326 63.8634 47.0666 62.4003 45.8457 61.3802L15.3757 35.9905Z" fill="black"/>
</svg>
