<svg width="61" height="116" viewBox="0 0 61 116" fill="none" xmlns="http://www.w3.org/2000/svg">
<rect x="2" y="2" width="57" height="112" rx="2" stroke="black" stroke-width="4"/>
<path d="M29.3669 26.3067C30.1639 25.1806 31.8349 25.1806 32.6319 26.3067L43.2783 41.35C44.4505 43.0062 42.6962 45.1537 40.8394 44.3356L31.8058 40.3553C31.292 40.1289 30.7068 40.1289 30.193 40.3553L21.1594 44.3356C19.3026 45.1537 17.5483 43.0062 18.7205 41.35L29.3669 26.3067Z" fill="black"/>
<path d="M32.6312 88.9433C31.8341 90.0694 30.1631 90.0694 29.3661 88.9433L18.7197 73.9C17.5476 72.2438 19.3019 70.0963 21.1586 70.9144L30.1922 74.8947C30.706 75.1211 31.2913 75.1211 31.8051 74.8947L40.8387 70.9144C42.6954 70.0963 44.4497 72.2438 43.2776 73.9L32.6312 88.9433Z" fill="black"/>
</svg>
