<svg width="38" height="30" viewBox="0 0 38 30" fill="none" xmlns="http://www.w3.org/2000/svg">
<path d="M37.4999 3.55469C36.0932 4.1659 34.6049 4.56858 33.0819 4.75C34.6824 3.8128 35.8861 2.32389 36.4671 0.562511C34.9539 1.44735 33.3011 2.06819 31.5796 2.39844C30.8547 1.6387 29.9828 1.03431 29.017 0.622C28.0513 0.209689 27.0117 -0.00192759 25.9616 1.323e-05C21.7101 1.323e-05 18.2695 3.39063 18.2695 7.5703C18.2665 8.15168 18.3331 8.73133 18.4679 9.29686C15.4192 9.15394 12.434 8.37622 9.70308 7.01347C6.9722 5.65072 4.55583 3.73294 2.60859 1.38282C1.92544 2.53447 1.56416 3.84847 1.5625 5.1875C1.5625 7.81249 2.93202 10.1328 4.99998 11.4922C3.77478 11.4631 2.57467 11.1388 1.50156 10.5469V10.6406C1.50156 14.3125 4.1578 17.3671 7.67341 18.0625C7.01231 18.2387 6.33105 18.328 5.64686 18.3281C5.16137 18.3289 4.67699 18.2818 4.20077 18.1875C5.17811 21.1953 8.02263 23.3828 11.3922 23.4453C8.65418 25.5553 5.29265 26.6958 1.83593 26.6874C1.22235 26.6865 0.609346 26.65 0 26.5781C3.51654 28.8235 7.60423 30.0113 11.7765 29.9999C25.9452 29.9999 33.6858 18.4609 33.6858 8.45311C33.6858 8.12499 33.6772 7.79686 33.6616 7.47655C35.164 6.40785 36.4638 5.07977 37.4999 3.55469Z" fill="white"/>
</svg>
