<svg width="25" height="32" viewBox="0 0 25 32" fill="none" xmlns="http://www.w3.org/2000/svg">
<path d="M10.9571 31.5741C11.2842 31.8468 11.7279 32 12.1905 32C12.6531 32 13.0967 31.8468 13.4239 31.5741L23.8912 22.8468C24.209 22.5724 24.3849 22.205 24.3809 21.8236C24.3769 21.4422 24.1934 21.0774 23.87 20.8077C23.5465 20.5381 23.109 20.3851 22.6515 20.3818C22.1941 20.3784 21.7535 20.5251 21.4244 20.79L13.935 27.0344V1.45456C13.935 1.06879 13.7512 0.698813 13.4241 0.426031C13.0969 0.153248 12.6532 0 12.1905 0C11.7278 0 11.2841 0.153248 10.9569 0.426031C10.6297 0.698813 10.4459 1.06879 10.4459 1.45456V27.0344L2.95652 20.79C2.6275 20.5251 2.18682 20.3784 1.7294 20.3818C1.27198 20.3851 0.834425 20.5381 0.51097 20.8077C0.187515 21.0774 0.00404079 21.4422 6.59486e-05 21.8236C-0.00390889 22.205 0.171934 22.5724 0.489719 22.8468L10.9571 31.5741Z" fill="black"/>
</svg>
