<svg width="10" height="14" viewBox="0 0 10 14" fill="none" xmlns="http://www.w3.org/2000/svg">
<path d="M8.07692 14H1.61538C1.18696 14 0.776079 13.8298 0.473135 13.5269C0.170192 13.2239 0 12.813 0 12.3846V1.61538C0 1.18696 0.170192 0.776079 0.473135 0.473135C0.776079 0.170192 1.18696 0 1.61538 0H8.07692C8.50535 0 8.91623 0.170192 9.21917 0.473135C9.52212 0.776079 9.69231 1.18696 9.69231 1.61538V12.3846C9.69231 12.813 9.52212 13.2239 9.21917 13.5269C8.91623 13.8298 8.50535 14 8.07692 14V14ZM1.61538 1.07692C1.47258 1.07692 1.33562 1.13365 1.23463 1.23463C1.13365 1.33562 1.07692 1.47258 1.07692 1.61538V12.3846C1.07692 12.5274 1.13365 12.6644 1.23463 12.7654C1.33562 12.8663 1.47258 12.9231 1.61538 12.9231H8.07692C8.21973 12.9231 8.35669 12.8663 8.45767 12.7654C8.55865 12.6644 8.61539 12.5274 8.61539 12.3846V1.61538C8.61539 1.47258 8.55865 1.33562 8.45767 1.23463C8.35669 1.13365 8.21973 1.07692 8.07692 1.07692H1.61538Z" fill="black"/>
<path d="M5.92315 2.15385H3.76931C3.48369 2.15385 3.20977 2.04039 3.00781 1.83842C2.80584 1.63646 2.69238 1.36254 2.69238 1.07692V0.538462C2.69238 0.395653 2.74911 0.258693 2.85009 0.157712C2.95108 0.0567306 3.08804 0 3.23084 0H6.46161C6.60442 0 6.74138 0.0567306 6.84236 0.157712C6.94335 0.258693 7.00008 0.395653 7.00008 0.538462V1.07692C7.00008 1.36254 6.88661 1.63646 6.68465 1.83842C6.48269 2.04039 6.20877 2.15385 5.92315 2.15385Z" fill="black"/>
</svg>
