<svg width="40" height="69" viewBox="0 0 40 69" fill="none" xmlns="http://www.w3.org/2000/svg">
<path fill-rule="evenodd" clip-rule="evenodd" d="M3.05763 38.615C3.07699 38.6699 3.09007 38.7008 3.09007 38.7008L3.05763 38.615C2.80041 37.8914 1.29569 32.6486 8.05062 24.4628C8.05062 24.4628 -0.00926917 34.4012 7.83857 54.9248C7.83857 54.9248 7.03815 51.5926 8.75532 48.4984C8.75532 48.4984 7.58291 60.967 17.6308 68.7046C17.6308 68.7046 13.0633 61.3944 17.2817 53.0488C17.2817 53.0488 19.5272 48.1764 21.3782 45.5812C21.3782 45.5812 22.5742 41.3723 22.7232 39.4721C22.7381 39.0876 22.7514 38.9996 22.7316 39.3328C22.7296 39.3773 22.7264 39.4247 22.7232 39.4721C22.6571 41.1993 22.5348 48.8632 24.7454 51.2811C24.7454 51.2811 23.4272 48.1057 25.9948 44.4048C25.9948 44.4048 34.1847 35.5198 34.6203 32.7065C34.6203 32.7065 35.4294 28.1969 34.1179 26.3084C34.1179 26.3084 37.1465 27.7017 35.2856 34.0419C35.2856 34.0419 41.171 28.7376 35.7409 18.3516C35.7409 18.3516 39.0777 18.9052 39.7548 25.6857C39.7548 25.6857 40.9505 3.51453 22.1759 0.244637C16.7809 -0.693656 3.53196 3.82453 1.90546 15.2182C1.90546 15.2182 4.0446 11.2559 7.13869 10.3549C7.13869 10.3549 -4.23477 19.3348 3.05763 38.615ZM18.241 33.7286C12.7062 32.7641 9.08716 25.8534 10.1666 18.3065C11.2434 10.7583 16.6143 5.41297 22.1491 6.37746C27.685 7.33902 31.3041 14.2497 30.2246 21.7966C29.1467 29.3477 23.777 34.6901 18.241 33.7286Z" fill="black"/>
</svg>
