<svg width="24" height="24" viewBox="0 0 24 24" fill="none" xmlns="http://www.w3.org/2000/svg">
<path fill-rule="evenodd" clip-rule="evenodd" d="M23 12C23 18.0751 18.0751 23 12 23C5.92487 23 1 18.0751 1 12C1 5.92487 5.92487 1 12 1C18.0751 1 23 5.92487 23 12ZM24 12C24 18.6274 18.6274 24 12 24C5.37258 24 0 18.6274 0 12C0 5.37258 5.37258 0 12 0C18.6274 0 24 5.37258 24 12ZM11.9412 15.8797C9.97103 15.8797 9.17281 15.0923 9.17281 15.0923C8.33921 15.6601 8.47851 16.5418 8.47851 16.5418C11.3751 16.8966 12.3436 18.5757 12.3436 18.5757C13.0722 16.8734 15.4127 16.5418 15.4127 16.5418C15.7499 15.9241 14.8422 15.0923 14.8422 15.0923C14.8422 15.0923 13.9113 15.8797 11.9412 15.8797ZM3.86384 13.1704C3.50895 14.255 3.88262 14.6809 3.94011 14.7374C2.38457 13.2514 3.18169 11.8796 3.18169 11.8796C2.89977 12.1069 2.84559 12.5793 2.84559 12.5793C2.53714 11.4282 3.71348 10.3902 4.30828 10.2305C6.37792 9.67377 7.17946 11.8241 7.17946 11.8241C6.82788 11.2153 6.46083 11.3162 6.46083 11.3162C7.45253 12.047 7.06779 12.82 7.06779 12.82C6.99483 12.1346 6.62556 12.1435 6.62556 12.1435C6.83894 12.2611 6.94397 12.7246 6.94397 12.7246C7.01694 13.0107 6.54375 14.2273 6.54375 14.2273C6.43319 14.6953 6.70184 14.9348 6.70184 14.9348C6.37349 14.8084 6.06614 14.0787 6.00091 13.9124C6.00036 13.9101 5.99953 13.9079 5.9987 13.9057C5.99787 13.9035 5.99704 13.9013 5.99648 13.899C5.98432 13.8658 5.98654 13.8758 6.00091 13.9124C6.06503 14.0987 6.117 14.5511 6.117 14.5511C6.03519 14.8816 6.00644 15.4461 6.00644 15.4461C5.92021 16.4286 6.69632 16.9088 6.69632 16.9088C5.33867 16.6416 4.93845 15.4084 4.93845 15.4084C4.89091 15.7799 5.11202 16.0582 5.11202 16.0582C3.44813 14.4813 3.86384 13.1704 3.86384 13.1704ZM16.8378 14.346C17.1871 14.3094 17.6725 13.6839 17.7775 13.5397C17.6681 13.7039 17.5011 14.1275 17.5011 14.1275C17.4956 14.4679 17.3762 15.0202 17.3762 15.0202C17.207 15.9917 16.3336 16.2545 16.3336 16.2545C17.7145 16.3477 18.4176 15.2609 18.4176 15.2609C18.3679 15.6324 18.0826 15.8442 18.0826 15.8442C20.097 14.7518 20.034 13.3778 20.034 13.3778C20.0959 14.5145 19.6282 14.8306 19.5575 14.8716C19.5546 14.8731 19.5523 14.8743 19.5507 14.8752C19.5486 14.8765 19.5475 14.8772 19.5475 14.8772L19.5575 14.8716C21.4425 13.8403 21.0268 12.3076 21.0268 12.3076C21.2391 12.6015 21.1705 13.0728 21.1705 13.0728C21.7642 12.0393 20.8963 10.7318 20.3635 10.4235C18.5072 9.34884 17.1783 11.2175 17.1783 11.2175C17.6758 10.7196 18.0041 10.9136 18.0041 10.9136C16.8566 11.3617 17.029 12.2078 17.029 12.2078C17.2767 11.5657 17.6316 11.6688 17.6316 11.6688C17.395 11.7276 17.1739 12.1479 17.1739 12.1479C17.0301 12.4052 17.1728 13.7039 17.1728 13.7039C17.1584 14.1841 16.8378 14.346 16.8378 14.346ZM17.7849 13.5302C17.7828 13.5337 17.7801 13.5371 17.7775 13.5397C17.7802 13.5363 17.7827 13.5331 17.7849 13.5302ZM17.7863 13.5275C17.7859 13.5284 17.7854 13.5293 17.7849 13.5302C17.8025 13.5072 17.804 13.5029 17.7863 13.5275ZM11.7289 15.4916L11.6847 15.7422C11.573 15.7378 11.4647 15.7311 11.3607 15.7222L10.9218 14.4979L10.8168 15.6512C9.64711 15.4394 9.17281 14.947 9.17281 14.947C8.41328 14.2728 8.20433 13.4599 8.20433 13.4599C8.29056 12.4784 8.79249 11.6467 8.79249 11.6467L10.1336 12.4939C10.1336 12.4939 8.82786 11.0101 10.2264 10.6952C11.625 10.3813 11.9788 11.9882 11.9788 11.9882C11.9788 11.9882 12.3845 10.1828 13.6393 10.6952C14.8942 11.2086 13.7687 12.4939 13.7687 12.4939L15.1164 11.6467C15.5111 12.0947 15.6614 13.4599 15.6614 13.4599C15.5033 14.2938 14.8864 14.947 14.8864 14.947C14.8864 14.947 13.94 15.7466 11.9412 15.7466C11.9196 15.7466 11.8981 15.7463 11.8765 15.7461C11.8549 15.7458 11.8334 15.7455 11.8118 15.7455L11.7289 15.4916ZM3.82404 12.4906C4.02857 13.2536 4.6897 13.7405 5.29998 13.5763C5.91026 13.4122 6.23971 12.6592 6.03628 11.8962C5.83286 11.1332 5.17173 10.6475 4.56145 10.8116C3.95117 10.9746 3.62061 11.7276 3.82404 12.4906ZM20.2474 12.7324C19.8538 13.4155 19.0898 13.7138 18.5426 13.3978C17.9953 13.0806 17.8704 12.2677 18.264 11.5835C18.6575 10.8992 19.4215 10.602 19.9688 10.9181C20.516 11.2352 20.6409 12.0481 20.2474 12.7324ZM13.6824 11.365C13.4061 11.1232 13.0479 11.1166 12.871 11.294C12.6952 11.4704 12.4365 11.9217 12.4365 11.9217L12.7748 12.0714C12.9859 11.9539 13.6824 11.365 13.6824 11.365ZM10.1203 11.365C10.3967 11.1232 10.7549 11.1166 10.9307 11.294C11.1076 11.4704 11.3663 11.9217 11.3663 11.9217L11.028 12.0714C10.8168 11.9539 10.1203 11.365 10.1203 11.365ZM15.7001 10.8804C15.7001 10.8804 15.8416 10.653 16.0019 10.3126C15.7996 10.6209 15.3397 10.6209 15.1374 10.6209C15.0267 10.6209 14.8213 10.6219 14.5536 10.6233C14.4364 10.6239 14.3073 10.6246 14.1689 10.6253C14.7394 10.7806 15.3718 10.9192 15.7001 10.8804ZM8.6797 10.6209C8.51718 10.6209 8.18662 10.6209 7.95888 10.4601C8.03074 10.6153 8.11146 10.7584 8.20433 10.8804C8.20433 10.8804 8.9727 10.8172 9.80188 10.6264C9.27452 10.6231 8.85661 10.6209 8.67972 10.6209H8.6797ZM8.85109 9.93771L8.51056 8.58697C8.01084 8.66681 8.07276 8.98842 8.07276 8.98842V9.92109C8.11035 10.3991 8.65428 10.3991 8.86324 10.3991H8.86325C9.01994 10.3991 9.4091 10.401 9.89338 10.4033C10.0515 10.4041 10.2198 10.4049 10.3934 10.4057C10.4829 10.4068 10.5625 10.4002 10.6322 10.3869C10.7361 10.3503 10.8378 10.3092 10.934 10.266C10.934 10.266 9.29221 10.4146 8.6963 10.266L8.20433 9.11152L8.85109 9.93771ZM15.0932 9.93771L15.4105 8.60914C15.7974 8.71339 15.7444 8.98842 15.7444 8.98842V9.92109C15.7068 10.3991 15.1628 10.3991 14.9539 10.3991H14.9539C14.7968 10.3991 14.4061 10.401 13.9207 10.4033C13.7637 10.4041 13.5969 10.4049 13.4249 10.4057C13.1673 10.3248 12.997 10.266 12.997 10.266H15.2866C15.4724 9.91665 15.7001 9.11152 15.7001 9.11152L15.0932 9.93771ZM7.46358 8.4062C7.46358 8.4062 7.46801 8.45388 7.47796 8.53705C7.52218 8.42172 7.67254 8.34631 7.84722 8.32856C7.93013 8.31969 8.11698 8.30195 8.32262 8.28975C8.38453 8.28199 8.45308 8.27755 8.52825 8.27755C8.52825 8.27755 8.80686 8.26757 9.16839 8.25869C9.39061 8.18772 9.63826 8.13893 9.85827 8.16887C9.85827 8.16887 9.89806 8.19659 9.96329 8.2465C10.3237 8.24428 10.6399 8.24984 10.746 8.27202C10.7544 8.27378 10.7627 8.27556 10.7712 8.27734C10.9324 8.31142 11.1159 8.35023 11.2546 8.44612V8.44501C11.3853 8.52565 11.4465 8.62515 11.5018 8.71502C11.5825 8.84637 11.6506 8.95716 11.9047 8.95848C12.1619 8.95716 12.2306 8.8465 12.3121 8.71525C12.368 8.62532 12.4299 8.52572 12.5625 8.44501V8.44612C12.7012 8.35023 12.8848 8.31142 13.0459 8.27734C13.0544 8.27556 13.0627 8.27378 13.0711 8.27202C13.1684 8.25205 13.4392 8.24539 13.7587 8.2465L13.7588 8.24642C13.792 8.21983 13.8251 8.19325 13.8593 8.16887C13.8593 8.16887 14.1988 8.19438 14.5647 8.25649C14.966 8.26647 15.2889 8.27755 15.2889 8.27755C15.364 8.27755 15.4326 8.28199 15.4956 8.28975C15.7001 8.30195 15.887 8.31969 15.9699 8.32856C16.18 8.34963 16.3535 8.45499 16.3535 8.61136C16.3535 8.72115 16.2396 9.01503 16.0981 9.18027V10.0087C16.0937 10.063 16.0849 10.1129 16.0727 10.1584C16.2927 9.65492 16.5127 8.97511 16.4187 8.4062C16.4187 8.4062 15.6515 7.51457 13.8593 7.61438C13.8593 7.61438 12.3259 8.34187 11.9412 8.83094C11.9412 8.83094 10.6333 7.75189 9.99425 7.61438C9.35633 7.47797 7.85054 7.88165 7.46358 8.4062ZM14.6863 9.90001L13.3784 9.64384C13.3784 9.64384 13.2679 8.82984 13.8052 8.64353C14.3425 8.45721 15.0987 8.71228 15.0987 8.71228L14.6863 9.90001ZM9.23029 9.90001L10.5382 9.64384C10.5382 9.64384 10.6488 8.82984 10.1114 8.64353C9.57414 8.45721 8.81791 8.71228 8.81791 8.71228L9.23029 9.90001ZM7.71898 9.18027C7.63496 9.08268 7.56198 8.94073 7.51554 8.81763C7.55424 9.07824 7.61837 9.43202 7.71898 9.79022V9.18027ZM13.2557 8.56589C13.2911 8.55923 13.3552 8.55369 13.4381 8.55036C13.018 9.00616 12.7239 9.54846 12.651 9.68819C12.6454 9.51629 12.6399 9.21909 12.6609 8.99951C12.6913 8.67581 13.0004 8.61561 13.243 8.56836L13.2557 8.56589ZM10.5614 8.56589C10.5194 8.55702 10.4365 8.55259 10.327 8.54926C10.6244 8.81653 10.9871 9.19691 11.1695 9.59504C11.1728 9.42092 11.1739 9.1836 11.1562 8.99951C11.1258 8.67581 10.8167 8.61561 10.5741 8.56836L10.5614 8.56589ZM12.3414 7.32826C12.2109 7.90605 11.9445 8.36739 11.9445 8.36739C10.8511 6.55529 11.9257 5.58936 11.9257 5.58936C12.4674 6.05624 12.4718 6.75048 12.3414 7.32826ZM13.9301 6.98335C14.9174 6.42775 16.4409 7.50237 16.4409 7.50237C15.479 5.0393 13.8195 6.82366 13.8195 6.82366C13.5796 7.05101 13.4149 7.03438 13.4149 7.03438C13.6139 7.1486 13.9301 6.98335 13.9301 6.98335ZM10.1888 6.98335C9.20155 6.42775 7.67697 7.50237 7.67697 7.50237C8.63992 5.0393 10.2994 6.82366 10.2994 6.82366C10.5382 7.05101 10.704 7.03438 10.704 7.03438C10.5039 7.1486 10.1888 6.98335 10.1888 6.98335Z" fill="black"/>
</svg>
